<svg width="32" height="32" viewBox="0 0 32 32" fill="none" xmlns="http://www.w3.org/2000/svg">
<path d="M13.9622 14.5899L1.97487 26.5772C1.10213 27.45 1.10213 28.8649 1.97487 29.7377C2.84761 30.6104 4.2626 30.6104 5.13534 29.7377L17.1227 17.7503M13.9622 14.5899L17.1227 17.7503M13.9622 14.5899L15.1474 13.4047M17.1227 17.7503L18.3078 16.5651M15.1474 13.4047L15.2151 13.3368C15.8324 12.7198 16.8328 12.7198 17.4499 13.3368L18.3757 14.2626C18.9928 14.8797 18.9928 15.8801 18.3757 16.4973L18.3078 16.5651M15.1474 13.4047L18.3078 16.5651" stroke="url(#paint0_linear_2412_2)" stroke-width="2.12337" stroke-linejoin="round"/>
<path d="M25.5871 1.99263C25.7526 1.63787 26.2571 1.63787 26.4226 1.99263L27.0465 3.32943C27.3213 3.91821 27.7946 4.39149 28.3833 4.66629L29.7201 5.29017C30.075 5.45574 30.075 5.9602 29.7201 6.12576L28.3833 6.74965C27.7946 7.02444 27.3213 7.4977 27.0465 8.08651L26.4226 9.4233C26.2571 9.77806 25.7526 9.77806 25.5871 9.4233L24.9631 8.08651C24.6884 7.4977 24.2151 7.02444 23.6263 6.74965L22.2896 6.12576C21.9347 5.9602 21.9347 5.45574 22.2896 5.29017L23.6263 4.66629C24.2151 4.39149 24.6884 3.91821 24.9631 3.32943L25.5871 1.99263Z" stroke="url(#paint1_linear_2412_2)" stroke-width="2.12337" stroke-linejoin="round"/>
<path d="M25.5871 19.5103C25.7526 19.1554 26.2571 19.1554 26.4226 19.5103L27.0465 20.8471C27.3213 21.4358 27.7946 21.9091 28.3833 22.1839L29.7201 22.8078C30.075 22.9733 30.075 23.4778 29.7201 23.6433L28.3833 24.2672C27.7946 24.542 27.3213 25.0153 27.0465 25.604L26.4226 26.9408C26.2571 27.2957 25.7526 27.2957 25.5871 26.9408L24.9631 25.604C24.6884 25.0153 24.2151 24.542 23.6263 24.2672L22.2896 23.6433C21.9347 23.4778 21.9347 22.9733 22.2896 22.8078L23.6263 22.1839C24.2151 21.9091 24.6884 21.4358 24.9631 20.8471L25.5871 19.5103Z" stroke="url(#paint2_linear_2412_2)" stroke-width="2.12337" stroke-linejoin="round"/>
<path d="M8.06361 1.99263C8.22918 1.63787 8.73364 1.63787 8.8992 1.99263L9.52308 3.32943C9.79788 3.91821 10.2711 4.39149 10.8599 4.66629L12.1967 5.29017C12.5515 5.45574 12.5515 5.9602 12.1967 6.12576L10.8599 6.74965C10.2711 7.02444 9.79788 7.4977 9.52308 8.08651L8.8992 9.4233C8.73364 9.77806 8.22918 9.77806 8.06361 9.4233L7.43973 8.08651C7.16493 7.4977 6.69165 7.02444 6.10287 6.74965L4.76607 6.12576C4.41131 5.9602 4.41131 5.45574 4.76607 5.29017L6.10287 4.66629C6.69165 4.39149 7.16493 3.91821 7.43973 3.32943L8.06361 1.99263Z" stroke="url(#paint3_linear_2412_2)" stroke-width="2.12337" stroke-linejoin="round"/>
<defs>
<linearGradient id="paint0_linear_2412_2" x1="10.0794" y1="12.874" x2="10.0794" y2="30.3922" gradientUnits="userSpaceOnUse">
<stop stop-color="#D32E96"/>
<stop offset="1" stop-color="#1249D2"/>
</linearGradient>
<linearGradient id="paint1_linear_2412_2" x1="26.0048" y1="1.72656" x2="26.0048" y2="9.68937" gradientUnits="userSpaceOnUse">
<stop stop-color="#D32E96"/>
<stop offset="1" stop-color="#1249D2"/>
</linearGradient>
<linearGradient id="paint2_linear_2412_2" x1="26.0048" y1="19.2441" x2="26.0048" y2="27.2069" gradientUnits="userSpaceOnUse">
<stop stop-color="#D32E96"/>
<stop offset="1" stop-color="#1249D2"/>
</linearGradient>
<linearGradient id="paint3_linear_2412_2" x1="8.48141" y1="1.72656" x2="8.48141" y2="9.68937" gradientUnits="userSpaceOnUse">
<stop stop-color="#D32E96"/>
<stop offset="1" stop-color="#1249D2"/>
</linearGradient>
</defs>
</svg>
