<svg width="12" height="12" viewBox="0 0 12 12" fill="none" xmlns="http://www.w3.org/2000/svg">
<g clip-path="url(#clip0_1283_543)">
<path d="M11.2998 2.82088V6.48755C11.2998 7.87767 10.1686 9.00838 8.77897 9.00838H6.4873V9.92505H7.63314C8.01264 9.92505 8.32064 10.2326 8.32064 10.6125C8.32064 10.9925 8.01264 11.3 7.63314 11.3H3.96647C3.58697 11.3 3.27897 10.9925 3.27897 10.6125C3.27897 10.2326 3.58697 9.92505 3.96647 9.92505H5.1123V9.00838H2.82064C1.43097 9.00838 0.299805 7.87767 0.299805 6.48755V2.82088C0.299805 1.43076 1.43097 0.300049 2.82064 0.300049H3.27897C3.65847 0.300049 3.96647 0.60759 3.96647 0.987549C3.96647 1.36751 3.65847 1.67505 3.27897 1.67505H2.82064C2.1886 1.67505 1.6748 2.1893 1.6748 2.82088V6.25838H9.9248V2.82088C9.9248 2.1893 9.41101 1.67505 8.77897 1.67505H8.32064C7.94114 1.67505 7.63314 1.36751 7.63314 0.987549C7.63314 0.60759 7.94114 0.300049 8.32064 0.300049H8.77897C10.1686 0.300049 11.2998 1.43076 11.2998 2.82088ZM4.02605 3.75772L5.47576 5.20742C5.65497 5.38663 5.9451 5.38663 6.12385 5.20742L7.57355 3.75772C7.8623 3.46897 7.65789 2.97534 7.24951 2.97534H6.4873V0.987549C6.4873 0.60759 6.1793 0.300049 5.7998 0.300049C5.4203 0.300049 5.1123 0.60759 5.1123 0.987549V2.97534H4.3501C3.94172 2.97534 3.7373 3.46897 4.02605 3.75772Z" fill="#4D41FA"/>
</g>
<defs>
<clipPath id="clip0_1283_543">
<rect width="11" height="11" fill="white" transform="translate(0.299805 0.300049)"/>
</clipPath>
</defs>
</svg>
