<svg width="39" height="39" viewBox="0 0 39 39" fill="none" xmlns="http://www.w3.org/2000/svg">
<g clip-path="url(#clip0_2354_115)">
<path d="M29.4909 9.89623C29.0042 9.40959 28.215 9.40959 27.7283 9.89623C27.2416 10.3829 27.2416 11.1721 27.7283 11.6588C32.1017 16.0323 32.1017 23.1484 27.7283 27.5219C27.2416 28.0087 27.2416 28.7978 27.7283 29.2845C28.215 29.7711 29.0042 29.7712 29.4909 29.2845C34.8362 23.9392 34.8362 15.2416 29.4909 9.89623Z" fill="url(#paint0_linear_2354_115)"/>
<path d="M11.8633 27.522C7.48989 23.1485 7.48989 16.0323 11.8633 11.6588C12.35 11.1721 12.35 10.383 11.8633 9.89629C11.3767 9.40957 10.5875 9.40957 10.1008 9.89629C4.75547 15.2416 4.75547 23.9392 10.1008 29.2845C10.5874 29.7713 11.3766 29.7713 11.8633 29.2845C12.35 28.7978 12.35 28.0087 11.8633 27.522Z" fill="url(#paint1_linear_2354_115)"/>
<path d="M19.7912 13.3586C16.3551 13.3586 13.5596 16.1541 13.5596 19.5903C13.5596 23.0264 16.3551 25.8219 19.7912 25.8219C23.2273 25.8219 26.0228 23.0264 26.0228 19.5903C26.0228 16.1541 23.2273 13.3586 19.7912 13.3586ZM19.7912 23.3292C17.7295 23.3292 16.0522 21.6519 16.0522 19.5903C16.0522 17.5286 17.7295 15.8513 19.7912 15.8513C21.8529 15.8513 23.5302 17.5286 23.5302 19.5903C23.5302 21.6519 21.8529 23.3292 19.7912 23.3292Z" fill="url(#paint2_linear_2354_115)"/>
<path d="M19.7932 20.8379C20.4816 20.8379 21.0396 20.2799 21.0396 19.5916C21.0396 18.9032 20.4816 18.3452 19.7932 18.3452C19.1049 18.3452 18.5469 18.9032 18.5469 19.5916C18.5469 20.2799 19.1049 20.8379 19.7932 20.8379Z" fill="url(#paint3_linear_2354_115)"/>
<path d="M19.793 0.479004C9.25554 0.479004 0.682617 9.05193 0.682617 19.5893C0.682617 30.1268 9.25554 38.6997 19.793 38.6997C30.3304 38.6997 38.9033 30.1268 38.9033 19.5893C38.9033 9.05193 30.3304 0.479004 19.793 0.479004ZM19.793 36.2071C10.63 36.2071 3.17525 28.7524 3.17525 19.5893C3.17525 10.4263 10.63 2.97163 19.793 2.97163C28.9559 2.97163 36.4107 10.4264 36.4107 19.5893C36.4107 28.7523 28.9559 36.2071 19.793 36.2071Z" fill="url(#paint4_linear_2354_115)"/>
</g>
<defs>
<linearGradient id="paint0_linear_2354_115" x1="30.4316" y1="9.53125" x2="30.4316" y2="29.6495" gradientUnits="userSpaceOnUse">
<stop stop-color="#D32E96"/>
<stop offset="1" stop-color="#1249D2"/>
</linearGradient>
<linearGradient id="paint1_linear_2354_115" x1="9.16008" y1="9.53125" x2="9.16008" y2="29.6496" gradientUnits="userSpaceOnUse">
<stop stop-color="#D32E96"/>
<stop offset="1" stop-color="#1249D2"/>
</linearGradient>
<linearGradient id="paint2_linear_2354_115" x1="19.7912" y1="13.3586" x2="19.7912" y2="25.8219" gradientUnits="userSpaceOnUse">
<stop stop-color="#D32E96"/>
<stop offset="1" stop-color="#1249D2"/>
</linearGradient>
<linearGradient id="paint3_linear_2354_115" x1="19.7932" y1="18.3452" x2="19.7932" y2="20.8379" gradientUnits="userSpaceOnUse">
<stop stop-color="#D32E96"/>
<stop offset="1" stop-color="#1249D2"/>
</linearGradient>
<linearGradient id="paint4_linear_2354_115" x1="19.793" y1="0.479004" x2="19.793" y2="38.6997" gradientUnits="userSpaceOnUse">
<stop stop-color="#D32E96"/>
<stop offset="1" stop-color="#1249D2"/>
</linearGradient>
<clipPath id="clip0_2354_115">
<rect width="38.2207" height="38.2207" fill="white" transform="translate(0.679688 0.480469)"/>
</clipPath>
</defs>
</svg>
