<svg width="28" height="27" viewBox="0 0 28 27" fill="none" xmlns="http://www.w3.org/2000/svg">
<path d="M13.5666 13.4148H4.73089M4.48045 14.573L3.02066 18.9336C2.22115 21.3219 1.8214 22.516 2.10828 23.2513C2.3574 23.89 2.89248 24.374 3.55273 24.5584C4.31303 24.7705 5.46138 24.2538 7.75807 23.2203L22.482 16.5945C24.7238 15.5857 25.8446 15.0814 26.191 14.3807C26.492 13.7719 26.492 13.0575 26.191 12.4488C25.8446 11.7482 24.7238 11.2438 22.482 10.235L7.73267 3.59782C5.4429 2.56743 4.29802 2.05223 3.53848 2.26358C2.87885 2.44712 2.34383 2.92998 2.09384 3.56739C1.80597 4.30137 2.20145 5.49291 2.99244 7.87599L4.48328 12.3677C4.61912 12.777 4.68706 12.9817 4.71386 13.1909C4.73766 13.3767 4.73741 13.5647 4.71315 13.7504C4.68579 13.9596 4.61735 14.164 4.48045 14.573Z" stroke="#2B45CA" stroke-width="2.90573" stroke-linecap="round" stroke-linejoin="round"/>
</svg>
