<svg width="13" height="12" viewBox="0 0 13 12" fill="none" xmlns="http://www.w3.org/2000/svg">
<path d="M5.81244 10.7816L12.1744 1.71627C12.2403 1.62279 12.2773 1.512 12.2807 1.39768C12.2841 1.28335 12.2539 1.17053 12.1937 1.07326C12.1336 0.975984 12.0461 0.898542 11.9423 0.850566C11.8385 0.80259 11.7228 0.786197 11.6098 0.803425L0.657464 2.44695C0.56228 2.46062 0.471995 2.49777 0.394756 2.55505C0.317516 2.61233 0.255752 2.68793 0.215035 2.77505C0.174317 2.86216 0.155928 2.95804 0.161526 3.05404C0.167124 3.15004 0.196533 3.24313 0.2471 3.32492L1.65669 5.61506C1.81011 5.86311 2.12561 5.96291 2.39208 5.83925L9.98204 2.44119L3.54888 7.70958C3.32231 7.89773 3.27069 8.22459 3.42411 8.47265L4.84362 10.7566C5.06148 11.1089 5.57399 11.128 5.81244 10.7816Z" fill="#2A2F2C"/>
</svg>
