<svg width="19" height="19" viewBox="0 0 19 19" fill="none" xmlns="http://www.w3.org/2000/svg">
<path d="M1.33301 11.3334C1.33301 8.19069 1.33301 6.61932 2.30931 5.64301C3.28563 4.6667 4.85697 4.6667 7.99966 4.6667H11.333C14.4756 4.6667 16.0471 4.6667 17.0233 5.64301C17.9996 6.61932 17.9996 8.19069 17.9996 11.3334C17.9996 14.476 17.9996 16.0474 17.0233 17.0237C16.0471 18 14.4756 18 11.333 18H7.99966C4.85697 18 3.28563 18 2.30931 17.0237C1.33301 16.0474 1.33301 14.476 1.33301 11.3334Z" stroke="white" stroke-width="1.25"/>
<path d="M12.9997 4.6667C12.9997 3.09535 12.9997 2.30968 12.5115 1.82153C12.0233 1.33337 11.2377 1.33337 9.66633 1.33337C8.095 1.33337 7.30931 1.33337 6.82116 1.82153C6.33301 2.30968 6.33301 3.09535 6.33301 4.6667" stroke="white" stroke-width="1.25"/>
<path d="M9.6663 14.1111C10.5868 14.1111 11.333 13.4893 11.333 12.7223C11.333 11.9552 10.5868 11.3334 9.6663 11.3334C8.7458 11.3334 7.99963 10.7115 7.99963 9.94444C7.99963 9.17744 8.7458 8.55561 9.6663 8.55561M9.6663 14.1111C8.7458 14.1111 7.99963 13.4893 7.99963 12.7223M9.6663 14.1111V14.6667M9.6663 8.55561V8.00003M9.6663 8.55561C10.5868 8.55561 11.333 9.17744 11.333 9.94444" stroke="white" stroke-width="1.25" stroke-linecap="round"/>
</svg>
