<svg width="24" height="25" viewBox="0 0 24 25" fill="none" xmlns="http://www.w3.org/2000/svg">
<path fill-rule="evenodd" clip-rule="evenodd" d="M11.9995 10.1642C12.4618 10.1642 12.8366 10.539 12.8366 11.0013C12.8366 11.6025 13.1887 12.2298 13.767 12.743C14.3597 13.2688 15.0073 13.5128 15.3482 13.5128C15.8105 13.5128 16.1853 13.8877 16.1853 14.35C16.1853 14.8123 15.8105 15.1872 15.3482 15.1872C14.524 15.1872 13.5847 14.7556 12.8366 14.1487V18.2568C12.8366 19.6439 11.7121 20.7683 10.3251 20.7683C8.93805 20.7683 7.8136 19.6439 7.8136 18.2568C7.8136 16.8698 8.93805 15.7453 10.3251 15.7453C10.6187 15.7453 10.9004 15.7956 11.1623 15.8882V11.0013C11.1623 10.539 11.5371 10.1642 11.9995 10.1642ZM11.1623 18.2568C11.1623 17.7945 10.7875 17.4196 10.3251 17.4196C9.86278 17.4196 9.48795 17.7945 9.48795 18.2568C9.48795 18.7191 9.86278 19.094 10.3251 19.094C10.7875 19.094 11.1623 18.7191 11.1623 18.2568Z" fill="white"/>
<path fill-rule="evenodd" clip-rule="evenodd" d="M8.31518 0.676186H15.6835C15.9289 0.676119 16.117 0.676063 16.2815 0.693711C17.793 0.855932 18.95 2.09721 19.0202 3.60084C20.3494 3.99775 21.2964 5.2276 21.3136 6.63816C21.9845 6.83945 22.5631 7.15695 23.0367 7.66859C23.7645 8.4547 23.9901 9.4235 23.9987 10.5551C24.007 11.6431 23.8131 13.018 23.5723 14.7254L23.0823 18.2009C22.8941 19.536 22.7412 20.6205 22.5033 21.4704C22.2544 22.3596 21.8876 23.0912 21.2084 23.6536C20.5345 24.2115 19.735 24.4521 18.79 24.5655C17.8764 24.6751 16.727 24.6751 15.2959 24.6751H8.70309C7.27199 24.6751 6.12253 24.6751 5.20885 24.5655C4.26392 24.4521 3.46446 24.2115 2.7906 23.6536C2.11137 23.0912 1.74451 22.3596 1.49562 21.4704C1.25772 20.6205 1.10483 19.536 0.916623 18.2009L0.42661 14.7254C0.185861 13.018 -0.00800559 11.6431 0.000254507 10.5551C0.00883831 9.4235 0.234372 8.4547 0.962143 7.66859C1.4357 7.15707 2.01418 6.83959 2.68484 6.63829C2.70192 5.2276 3.64914 3.99762 4.97844 3.60077C5.04865 2.09718 6.2056 0.855932 7.71715 0.693711C7.88163 0.676063 8.06978 0.676119 8.31518 0.676186ZM4.39685 6.34422C5.43024 6.25731 6.69707 6.25732 8.22208 6.25733H15.7768C17.3016 6.25732 18.5683 6.25731 19.6015 6.34418C19.4485 5.66592 18.8426 5.1411 18.096 5.1411H5.90247C5.15582 5.1411 4.54995 5.66593 4.39685 6.34422ZM16.1028 2.3585C16.717 2.42441 17.2023 2.88221 17.3213 3.46676H6.67739C6.79629 2.88221 7.28165 2.42441 7.89581 2.3585C7.95864 2.35176 8.04816 2.35053 8.36166 2.35053H15.637C15.9505 2.35053 16.04 2.35176 16.1028 2.3585ZM2.19079 8.80608C2.52889 8.44087 3.03733 8.19863 4.02526 8.06723C5.03113 7.93344 6.37765 7.93168 8.28509 7.93168H15.7138C17.6212 7.93168 18.9677 7.93344 19.9737 8.06723C20.9616 8.19863 21.47 8.44087 21.8081 8.80608C22.1384 9.16279 22.3174 9.64823 22.3244 10.5679C22.3316 11.5168 22.1574 12.7681 21.9047 14.5602L21.4326 17.9089C21.2341 19.3162 21.0952 20.2894 20.8909 21.0191C20.6942 21.7218 20.4627 22.0972 20.1406 22.364C19.813 22.6352 19.3731 22.8092 18.5906 22.9031C17.7883 22.9994 16.7395 23.0008 15.2417 23.0008H8.75722C7.25936 23.0008 6.21062 22.9994 5.40834 22.9031C4.62584 22.8092 4.18601 22.6352 3.8584 22.364C3.53616 22.0972 3.30468 21.7218 3.10799 21.0191C2.90376 20.2894 2.76479 19.3162 2.56635 17.9089L2.09422 14.5602C1.84156 12.7681 1.66734 11.5168 1.67454 10.5679C1.68153 9.64823 1.86054 9.16279 2.19079 8.80608Z" fill="white"/>
</svg>
