<svg width="16" height="17" viewBox="0 0 16 17" fill="none" xmlns="http://www.w3.org/2000/svg">
<path fill-rule="evenodd" clip-rule="evenodd" d="M4.39542 1.52972C4.48641 0.669911 5.21389 0 6.09782 0H9.90223C10.7861 0 11.5136 0.669911 11.6046 1.52972C12.1853 1.54154 12.6873 1.57157 13.1159 1.65032C13.6926 1.75625 14.1835 1.95807 14.5829 2.35748C15.0409 2.81547 15.2379 3.39212 15.33 4.077C15.4186 4.73666 15.4186 5.5754 15.4186 6.61597V11.2648C15.4186 12.3054 15.4186 13.1441 15.33 13.8038C15.2379 14.4886 15.0409 15.0652 14.5829 15.5233C14.1249 15.9813 13.5483 16.1783 12.8634 16.2703C12.2037 16.359 11.365 16.359 10.3244 16.359H5.67563C4.63505 16.359 3.79632 16.359 3.13665 16.2703C2.45178 16.1783 1.87513 15.9813 1.41714 15.5233C0.959146 15.0652 0.762161 14.4886 0.670079 13.8038C0.581391 13.1441 0.581406 12.3054 0.581421 11.2648V6.61597C0.581406 5.5754 0.581391 4.73666 0.670079 4.077C0.762161 3.39212 0.959146 2.81547 1.41714 2.35748C1.81655 1.95807 2.30737 1.75625 2.88412 1.65032C3.31278 1.57157 3.81481 1.54154 4.39542 1.52972ZM4.39722 2.67136C3.85077 2.68302 3.42968 2.71052 3.09032 2.77285C2.65904 2.85208 2.40941 2.97928 2.22417 3.16452C2.01359 3.3751 1.87629 3.67076 1.80123 4.22908C1.72395 4.80381 1.72274 5.56554 1.72274 6.65772V11.223C1.72274 12.3152 1.72395 13.0769 1.80123 13.6517C1.87629 14.21 2.01359 14.5056 2.22417 14.7162C2.43476 14.9268 2.73042 15.0641 3.28873 15.1392C3.86346 15.2164 4.62519 15.2176 5.71738 15.2176H10.2827C11.3748 15.2176 12.1366 15.2164 12.7113 15.1392C13.2697 15.0641 13.5653 14.9268 13.7759 14.7162C13.9865 14.5056 14.1238 14.21 14.1989 13.6517C14.2761 13.0769 14.2773 12.3152 14.2773 11.223V6.65772C14.2773 5.56554 14.2761 4.80381 14.1989 4.22908C14.1238 3.67076 13.9865 3.3751 13.7759 3.16452C13.5906 2.97928 13.341 2.85208 12.9098 2.77285C12.5703 2.71052 12.1493 2.68302 11.6028 2.67136C11.5045 3.52336 10.7806 4.18485 9.90223 4.18485H6.09782C5.21945 4.18485 4.49558 3.52336 4.39722 2.67136ZM6.09782 1.14132C5.78265 1.14132 5.52716 1.39682 5.52716 1.71199V2.47287C5.52716 2.78803 5.78265 3.04353 6.09782 3.04353H9.90223C10.2174 3.04353 10.4729 2.78803 10.4729 2.47287V1.71199C10.4729 1.39682 10.2174 1.14132 9.90223 1.14132H6.09782ZM3.62495 7.03816C3.62495 6.723 3.88045 6.4675 4.19561 6.4675H11.8044C12.1196 6.4675 12.3751 6.723 12.3751 7.03816C12.3751 7.35332 12.1196 7.60882 11.8044 7.60882H4.19561C3.88045 7.60882 3.62495 7.35332 3.62495 7.03816ZM4.38583 9.70125C4.38583 9.38609 4.64133 9.13059 4.95649 9.13059H11.0436C11.3587 9.13059 11.6142 9.38609 11.6142 9.70125C11.6142 10.0164 11.3587 10.2719 11.0436 10.2719H4.95649C4.64133 10.2719 4.38583 10.0164 4.38583 9.70125ZM5.14672 12.3643C5.14672 12.0492 5.40221 11.7937 5.71738 11.7937H10.2827C10.5978 11.7937 10.8533 12.0492 10.8533 12.3643C10.8533 12.6795 10.5978 12.935 10.2827 12.935H5.71738C5.40221 12.935 5.14672 12.6795 5.14672 12.3643Z" fill="white"/>
</svg>
