<svg width="18" height="18" viewBox="0 0 18 18" fill="none" xmlns="http://www.w3.org/2000/svg">
<path d="M5.25 10.5L6.96967 8.78032C7.26256 8.48745 7.73745 8.48745 8.03032 8.78032L9.21968 9.96967C9.51255 10.2625 9.98745 10.2625 10.2803 9.96967L12.75 7.5M12.75 7.5V9.375M12.75 7.5H10.875" stroke="white" stroke-width="1.4" stroke-linecap="round" stroke-linejoin="round"/>
<path d="M16.5 9C16.5 12.5355 16.5 14.3033 15.4016 15.4016C14.3033 16.5 12.5355 16.5 9 16.5C5.46446 16.5 3.6967 16.5 2.59835 15.4016C1.5 14.3033 1.5 12.5355 1.5 9C1.5 5.46446 1.5 3.6967 2.59835 2.59835C3.6967 1.5 5.46446 1.5 9 1.5C12.5355 1.5 14.3033 1.5 15.4016 2.59835C16.132 3.32866 16.3767 4.35491 16.4587 6" stroke="white" stroke-width="1.4" stroke-linecap="round"/>
</svg>
