<svg width="24" height="25" viewBox="0 0 24 25" fill="none" xmlns="http://www.w3.org/2000/svg">
<path d="M18 2.23138C21.3137 2.23138 24 4.91768 24 8.23138V17.2314C24 20.5451 21.3137 23.2314 18 23.2314H6C2.68629 23.2314 0 20.5451 0 17.2314V8.23138C0 4.91768 2.68629 2.23138 6 2.23138H18ZM6.63222 10.7764L1.5 15.9084V17.2314C1.5 19.6602 3.42418 21.6396 5.8313 21.7283L6 21.7314H17.5875L6.63222 10.7764ZM22.5 9.37813L14.928 16.9509L19.4642 21.4878C21.1801 20.8977 22.4269 19.2992 22.4969 17.4001L22.5 17.2314V9.37813ZM18 3.73138H6C3.5712 3.73138 1.59182 5.65557 1.5031 8.06268L1.5 8.23138V13.7866L5.57156 9.71577C6.13072 9.15661 7.0215 9.1312 7.61081 9.63952L7.69288 9.71577L13.8668 15.8896L22.4128 7.34512C22.0118 5.33762 20.2752 3.81212 18.1687 3.73449L18 3.73138ZM13.95 5.23138C15.6069 5.23138 16.95 6.57453 16.95 8.23138C16.95 9.88824 15.6069 11.2314 13.95 11.2314C12.2931 11.2314 10.95 9.88824 10.95 8.23138C10.95 6.57453 12.2931 5.23138 13.95 5.23138ZM13.95 6.73138C13.1216 6.73138 12.45 7.40296 12.45 8.23138C12.45 9.05981 13.1216 9.73138 13.95 9.73138C14.7784 9.73138 15.45 9.05981 15.45 8.23138C15.45 7.40296 14.7784 6.73138 13.95 6.73138Z" fill="white"/>
</svg>
